<?xml version="1.0" encoding="UTF-8" standalone="no"?>
<svg
   xmlns:dc="http://purl.org/dc/elements/1.1/"
   xmlns:cc="http://creativecommons.org/ns#"
   xmlns:rdf="http://www.w3.org/1999/02/22-rdf-syntax-ns#"
   xmlns:svg="http://www.w3.org/2000/svg"
   xmlns="http://www.w3.org/2000/svg"
   viewBox="0 0 773.17517 395.72657"
   height="395.72656"
   width="773.17517"
   id="svg8223"
   version="1.1">
  <metadata
     id="metadata8229">
    <rdf:RDF>
      <cc:Work
         rdf:about="">
        <dc:format>image/svg+xml</dc:format>
        <dc:type
           rdf:resource="http://purl.org/dc/dcmitype/StillImage" />
        <dc:title></dc:title>
      </cc:Work>
    </rdf:RDF>
  </metadata>
  <defs
     id="defs8227" />
  <g
     transform="translate(-10.85097,-60.523437)"
     style="display:inline"
     id="layer8">
    <g
       transform="translate(-0.78125)"
       id="g8242" />
    <g
       style="fill:none"
       transform="matrix(-1,0,0,1,794.8773,-2.34375)"
       id="g8270">
      <path
         id="path8279"
         transform="matrix(-1,0,0,1,794.8773,2.34375)"
         d="m 396.26758,65.523438 -40.41406,96.490232 32.04101,-11.40625 -0.68164,107.52735 -47.03906,0.68164 C 300.65624,194.08636 224.4461,243.49976 190.87891,278.58594 157.31172,313.67212 91.627252,403.50541 44.419922,435.49805 c -1.52284,1.03203 -3.0689,0.22101 -4.59375,1.14843 -2.60955,-5.82305 -2.715957,-12.26766 -11.779297,-14.11914 -9.86253,1.37993 -13.674917,9.00863 -11.685547,16.94336 3.01328,10.98666 7.902429,11.42331 17.042969,11.7793 L 398.2207,448.04102 761.47266,451.25 c 9.14054,-0.35599 14.02969,-0.79264 17.04296,-11.7793 1.98938,-7.93473 -1.82106,-15.56343 -11.68359,-16.94336 -9.06334,1.85148 -9.1717,8.29609 -11.78125,14.11914 -1.52485,-0.92742 -3.07092,-0.1164 -4.59375,-1.14843 C 703.24969,403.50541 637.56524,313.67212 603.99805,278.58594 570.43086,243.49976 494.22071,194.08636 454.70312,258.81641 l -47.03906,-0.68164 -0.68164,-107.52735 32.04102,11.40625 z M 291.46875,270.89258 c 18.30311,-0.0289 34.7094,7.73852 48.70508,25.41797 h 49.08398 l -0.68164,93.39453 -11.58984,8.17969 -0.68164,42.94921 -316.996096,1.36329 89.304686,-80.44336 c 53.14365,-53.0015 102.58863,-90.79779 142.85547,-90.86133 z m 211.93945,0 c 40.26685,0.0635 89.71183,37.85983 142.85547,90.86133 l 89.30469,80.44336 -316.99609,-1.36329 -0.68165,-42.94921 -11.58984,-8.17969 -0.68164,-93.39453 h 49.08398 c 13.99569,-17.67945 30.40197,-25.44685 48.70508,-25.41797 z"
         style="fill:#000000;stroke:#ff0000;stroke-width:0;stroke-linecap:butt;stroke-linejoin:miter;stroke-miterlimit:4;stroke-dasharray:none;stroke-opacity:1" />
    </g>
  </g>
</svg>
